HIERARCHY
ROOT Hips
{
  OFFSET 373.837 88.1643 177.628
  CHANNELS 6 Xposition Yposition Zposition Zrotation Xrotation Yrotation
  JOINT RightUpLeg
  {
    OFFSET -9.27602 -1.55371 -0.0617006
    CHANNELS 3 Zrotation Xrotation Yrotation
    JOINT RightLeg
    {
      OFFSET 0.0569767 -41.8713 0.0644562
      CHANNELS 3 Zrotation Xrotation Yrotation
      JOINT RightFoot
      {
        OFFSET -0.463049 -43.0064 -0.0336586
        CHANNELS 3 Zrotation Xrotation Yrotation
        End Site
        {
          OFFSET 0 -7.69 17.5
        }
      }
    }
  }
  JOINT LeftUpLeg
  {
    OFFSET 9.29312 -1.63815 0.0236341
    CHANNELS 3 Zrotation Xrotation Yrotation
    JOINT LeftLeg
    {
      OFFSET 0.0670365 -41.8776 -0.0578197
      CHANNELS 3 Zrotation Xrotation Yrotation
      JOINT LeftFoot
      {
        OFFSET 0.591956 -40.8352 0.210268
        CHANNELS 3 Zrotation Xrotation Yrotation
        End Site
        {
          OFFSET 0 -7.69 17.5
        }
      }
    }
  }
  JOINT Spine
  {
    OFFSET 0.0229142 14.2949 0.0394214
    CHANNELS 3 Zrotation Xrotation Yrotation
    JOINT Spine1
    {
      OFFSET 0.0328969 9.71943 0.0194292
      CHANNELS 3 Zrotation Xrotation Yrotation
      JOINT Spine2
      {
        OFFSET 0.0292955 10.1244 -0.00440821
        CHANNELS 3 Zrotation Xrotation Yrotation
        JOINT Spine3
        {
          OFFSET 0.024556 9.71184 0.0101567
          CHANNELS 3 Zrotation Xrotation Yrotation
          JOINT Neck
          {
            OFFSET 0.152325 10.3757 0.0664015
            CHANNELS 3 Zrotation Xrotation Yrotation
            JOINT Head
            {
              OFFSET 0.134553 9.4858 0.0499874
              CHANNELS 3 Zrotation Xrotation Yrotation
              End Site
              {
                OFFSET 0 15.95 0
              }
            }
          }
          JOINT RightShoulder
          {
            OFFSET -3.19519 6.89024 -0.0330231
            CHANNELS 3 Zrotation Xrotation Yrotation
            JOINT RightArm
            {
              OFFSET -12.6524 0.0927817 0.0603028
              CHANNELS 3 Zrotation Xrotation Yrotation
              JOINT RightForeArm
              {
                OFFSET -26.4983 -0.141459 0.202928
                CHANNELS 3 Zrotation Xrotation Yrotation
                JOINT RightHand
                {
                  OFFSET -25.9883 -0.0240172 0.0141731
                  CHANNELS 3 Zrotation Xrotation Yrotation
                  JOINT RightHandThumb1
                  {
                    OFFSET -2.48905 0.190105 3.12053
                    CHANNELS 3 Zrotation Xrotation Yrotation
                    JOINT RightHandThumb2
                    {
                      OFFSET -3.68274 0 0
                      CHANNELS 3 Zrotation Xrotation Yrotation
                      JOINT RightHandThumb3
                      {
                        OFFSET -2.55832 0 0
                        CHANNELS 3 Zrotation Xrotation Yrotation
                        End Site
                        {
                          OFFSET -2.194 0 0
                        }
                      }
                    }
                  }
                  JOINT RightInHandIndex
                  {
                    OFFSET -3.22368 0.508421 1.97842
                    CHANNELS 3 Zrotation Xrotation Yrotation
                    JOINT RightHandIndex1
                    {
                      OFFSET -5.21684 -0.091368 0.999158
                      CHANNELS 3 Zrotation Xrotation Yrotation
                      JOINT RightHandIndex2
                      {
                        OFFSET -3.61937 0 0
                        CHANNELS 3 Zrotation Xrotation Yrotation
                        JOINT RightHandIndex3
                        {
                          OFFSET -2.0521 0 0
                          CHANNELS 3 Zrotation Xrotation Yrotation
                          End Site
                          {
                            OFFSET -1.805 0 0
                          }
                        }
                      }
                    }
                  }
                  JOINT RightInHandMiddle
                  {
                    OFFSET -3.38211 0.517263 0.756737
                    CHANNELS 3 Zrotation Xrotation Yrotation
                    JOINT RightHandMiddle1
                    {
                      OFFSET -5.17411 -0.084 0.313895
                      CHANNELS 3 Zrotation Xrotation Yrotation
                      JOINT RightHandMiddle2
                      {
                        OFFSET -3.94947 0 0
                        CHANNELS 3 Zrotation Xrotation Yrotation
                        JOINT RightHandMiddle3
                        {
                          OFFSET -2.47579 0 0
                          CHANNELS 3 Zrotation Xrotation Yrotation
                          End Site
                          {
                            OFFSET -1.975 0 0
                          }
                        }
                      }
                    }
                  }
                  JOINT RightInHandRing
                  {
                    OFFSET -3.36516 0.537895 -0.128947
                    CHANNELS 3 Zrotation Xrotation Yrotation
                    JOINT RightHandRing1
                    {
                      OFFSET -4.63474 -0.022105 -0.478947
                      CHANNELS 3 Zrotation Xrotation Yrotation
                      JOINT RightHandRing2
                      {
                        OFFSET -3.44238 0 0
                        CHANNELS 3 Zrotation Xrotation Yrotation
                        JOINT RightHandRing3
                        {
                          OFFSET -2.3881 0 0
                          CHANNELS 3 Zrotation Xrotation Yrotation
                          End Site
                          {
                            OFFSET -1.857 0 0
                          }
                        }
                      }
                    }
                  }
                  JOINT RightInHandPinky
                  {
                    OFFSET -3.16105 0.469368 -1.20179
                    CHANNELS 3 Zrotation Xrotation Yrotation
                    JOINT RightHandPinky1
                    {
                      OFFSET -4.14105 -0.022105 -1.09053
                      CHANNELS 3 Zrotation Xrotation Yrotation
                      JOINT RightHandPinky2
                      {
                        OFFSET -2.75653 0 0
                        CHANNELS 3 Zrotation Xrotation Yrotation
                        JOINT RightHandPinky3
                        {
                          OFFSET -1.74189 0 0
                          CHANNELS 3 Zrotation Xrotation Yrotation
                          End Site
                          {
                            OFFSET -1.645 0 0
                          }
                        }
                      }
                    }
                  }
                }
              }
            }
          }
          JOINT LeftShoulder
          {
            OFFSET 3.28609 6.87948 -0.0751467
            CHANNELS 3 Zrotation Xrotation Yrotation
            JOINT LeftArm
            {
              OFFSET 12.831 -0.0663252 -0.1321
              CHANNELS 3 Zrotation Xrotation Yrotation
              JOINT LeftForeArm
              {
                OFFSET 26.5106 -0.082189 -0.0903645
                CHANNELS 3 Zrotation Xrotation Yrotation
                JOINT LeftHand
                {
                  OFFSET 25.9965 -0.0307163 -0.0535747
                  CHANNELS 3 Zrotation Xrotation Yrotation
                  JOINT LeftHandThumb1
                  {
                    OFFSET 2.48905 0.190105 3.12053
                    CHANNELS 3 Zrotation Xrotation Yrotation
                    JOINT LeftHandThumb2
                    {
                      OFFSET 3.68274 0 0
                      CHANNELS 3 Zrotation Xrotation Yrotation
                      JOINT LeftHandThumb3
                      {
                        OFFSET 2.55832 0 0
                        CHANNELS 3 Zrotation Xrotation Yrotation
                        End Site
                        {
                          OFFSET 2.194 0 0
                        }
                      }
                    }
                  }
                  JOINT LeftInHandIndex
                  {
                    OFFSET 3.22368 0.508421 1.97842
                    CHANNELS 3 Zrotation Xrotation Yrotation
                    JOINT LeftHandIndex1
                    {
                      OFFSET 5.21684 -0.091368 0.999158
                      CHANNELS 3 Zrotation Xrotation Yrotation
                      JOINT LeftHandIndex2
                      {
                        OFFSET 3.61937 0 0
                        CHANNELS 3 Zrotation Xrotation Yrotation
                        JOINT LeftHandIndex3
                        {
                          OFFSET 2.0521 0 0
                          CHANNELS 3 Zrotation Xrotation Yrotation
                          End Site
                          {
                            OFFSET 1.805 0 0
                          }
                        }
                      }
                    }
                  }
                  JOINT LeftInHandMiddle
                  {
                    OFFSET 3.38211 0.517263 0.756737
                    CHANNELS 3 Zrotation Xrotation Yrotation
                    JOINT LeftHandMiddle1
                    {
                      OFFSET 5.17411 -0.084 0.313895
                      CHANNELS 3 Zrotation Xrotation Yrotation
                      JOINT LeftHandMiddle2
                      {
                        OFFSET 3.94947 0 0
                        CHANNELS 3 Zrotation Xrotation Yrotation
                        JOINT LeftHandMiddle3
                        {
                          OFFSET 2.47579 0 0
                          CHANNELS 3 Zrotation Xrotation Yrotation
                          End Site
                          {
                            OFFSET 1.975 0 0
                          }
                        }
                      }
                    }
                  }
                  JOINT LeftInHandRing
                  {
                    OFFSET 3.36516 0.537895 -0.128947
                    CHANNELS 3 Zrotation Xrotation Yrotation
                    JOINT LeftHandRing1
                    {
                      OFFSET 4.63474 -0.022105 -0.478947
                      CHANNELS 3 Zrotation Xrotation Yrotation
                      JOINT LeftHandRing2
                      {
                        OFFSET 3.44238 0 0
                        CHANNELS 3 Zrotation Xrotation Yrotation
                        JOINT LeftHandRing3
                        {
                          OFFSET 2.3881 0 0
                          CHANNELS 3 Zrotation Xrotation Yrotation
                          End Site
                          {
                            OFFSET 1.857 0 0
                          }
                        }
                      }
                    }
                  }
                  JOINT LeftInHandPinky
                  {
                    OFFSET 3.16105 0.469368 -1.20179
                    CHANNELS 3 Zrotation Xrotation Yrotation
                    JOINT LeftHandPinky1
                    {
                      OFFSET 4.14105 -0.022105 -1.09053
                      CHANNELS 3 Zrotation Xrotation Yrotation
                      JOINT LeftHandPinky2
                      {
                        OFFSET 2.75653 0 0
                        CHANNELS 3 Zrotation Xrotation Yrotation
                        JOINT LeftHandPinky3
                        {
                          OFFSET 1.74189 0 0
                          CHANNELS 3 Zrotation Xrotation Yrotation
                          End Site
                          {
                            OFFSET 1.645 0 0
                          }
                        }
                      }
                    }
                  }
                }
              }
            }
          }
        }
      }
    }
  }
}
MOTION
Frames: 3
Frame Time: 0.00833333
4.499993533737813323e+02 2.659000099028271252e-02 -2.495063941628920118e-02 -7.864904280316714971e-03 -1.669010906757547111e-02 -7.975367950448188081e-02 3.650830665430818828e-02 4.293949683483324481e-02 1.982268210407405473e-01 4.800677911136181503e-02 3.049586345395800899e-03 4.881381224094472754e-03 3.851658136042508951e-01 4.991057862205554307e-02 -2.635524450979306876e-01 6.468293992707695172e-02 -1.412073324242157230e-02 8.353670575145463739e-02 -7.356487177209510009e-02 -6.558607948683443933e-02 1.618508776858873233e-01 -1.615174422184396247e-02 2.718071233460618297e-01 -2.648591152897152023e-02 -2.743965068787026368e-02 -1.546091071417024509e-02 6.069986288689347559e-02 -8.062223632208318988e-03 -5.913545333996407874e-03 1.694604841642733881e-02 -1.318840819783937898e-02 -1.042869699353989564e-02 2.720520683008156165e-02 1.825456535298580676e-03 -2.059921117277255763e-03 2.161004365709724012e-03 1.717017428588593284e-02 -4.918557311999739723e-02 1.207660887471956879e-01 5.544653282391427684e-02 -5.026215565332968482e-02 -9.530035966209184084e-02 3.626675116388675818e-02 2.020199379097067927e-02 8.478930514464154411e-04 -4.842330871313840768e-01 -2.955238511537054691e-02 -4.320066622462415684e-01 2.892151176050061431e-02 7.925728239264427655e-02 1.049736453187072489e-02 -2.345652749897874090e-01 -6.257072331049938763e-01 -3.967790973162595436e-01 0.000000000000000000e+00 0.000000000000000000e+00 0.000000000000000000e+00 7.739708516844386740e-15 -9.471112970446488611e-16 0.000000000000000000e+00 1.969013896248346458e-15 -8.155168724028192960e-16 0.000000000000000000e+00 2.026263440413350578e-15 1.352970495664893271e-15 -1.460790458068978091e-15 0.000000000000000000e+00 0.000000000000000000e+00 0.000000000000000000e+00 0.000000000000000000e+00 -1.990355544174979166e-15 1.083330437723955554e-15 0.000000000000000000e+00 6.381945535396941113e-16 8.357810574668706538e-16 2.026263440413350578e-15 1.352970495664893271e-15 -1.460790458068978091e-15 0.000000000000000000e+00 5.763003207589472586e-16 -4.902359952311172000e-16 0.000000000000000000e+00 5.329147023668199237e-16 -1.168559556595063618e-15 0.000000000000000000e+00 1.844051497678447618e-15 5.688396409364850371e-16 2.026263440413350578e-15 1.352970495664893271e-15 -1.460790458068978091e-15 0.000000000000000000e+00 0.000000000000000000e+00 0.000000000000000000e+00 0.000000000000000000e+00 3.494155173137176803e-16 1.016312381179474757e-15 0.000000000000000000e+00 4.050943293650071744e-15 6.157912065380101319e-16 2.026263440413350578e-15 1.352970495664893271e-15 -1.460790458068978091e-15 0.000000000000000000e+00 0.000000000000000000e+00 0.000000000000000000e+00 0.000000000000000000e+00 -1.578968002139418250e-15 1.922358037149217912e-15 0.000000000000000000e+00 2.514610204826637181e-16 4.918054093895178378e-16 6.729312904168179010e-02 1.755139795612538703e-02 6.092852012934326517e-02 -1.557843364057112101e-01 -6.893489100953505144e-03 6.803799839518895332e-02 5.001872538538167275e-03 2.800114552271801283e-01 2.120155713166184397e-01 -1.935064976255696650e-02 -5.606256917136796109e-02 -4.628999700867750255e-01 0.000000000000000000e+00 0.000000000000000000e+00 0.000000000000000000e+00 -3.743190646967018230e-16 1.078274037010543096e-15 0.000000000000000000e+00 -9.597931865293880865e-16 7.987152965643390307e-16 0.000000000000000000e+00 -1.098780127352317010e-15 -4.605294357923628699e-16 7.840095032009945793e-17 0.000000000000000000e+00 0.000000000000000000e+00 0.000000000000000000e+00 0.000000000000000000e+00 1.263888753013430457e-15 -1.705237307234468599e-15 0.000000000000000000e+00 5.119237030199221179e-16 -1.727727029443452829e-16 -1.098780127352317010e-15 -4.605294357923628699e-16 7.840095032009945793e-17 0.000000000000000000e+00 2.719055266986086126e-17 -1.715887781326531900e-15 0.000000000000000000e+00 3.478417927963958687e-16 -7.754957259756785108e-16 0.000000000000000000e+00 -1.302224786479629337e-15 8.953640947679787966e-18 -1.098780127352317010e-15 -4.605294357923628699e-16 7.840095032009945793e-17 0.000000000000000000e+00 0.000000000000000000e+00 0.000000000000000000e+00 0.000000000000000000e+00 4.156493153312194074e-16 -7.993796002244199405e-16 0.000000000000000000e+00 -2.425281571727093758e-15 -1.169452253398495108e-15 -1.098780127352317010e-15 -4.605294357923628699e-16 7.840095032009945793e-17 0.000000000000000000e+00 0.000000000000000000e+00 0.000000000000000000e+00 0.000000000000000000e+00 1.308184491947075972e-16 -7.533009274281232730e-17 0.000000000000000000e+00 1.053616328343056459e-15 2.992292248923548260e-16
4.500005719781935909e+02 2.881944091742138017e-02 -2.913503508016425728e-02 -2.242799668037857852e-02 -1.997711908247691223e-02 -1.048494532382476946e-01 1.095636216290474599e-02 4.666533522686650698e-02 2.173083291971185660e-01 5.917370297784206590e-02 4.510330318055791668e-03 1.168119074006961772e-02 4.940820121181385693e-01 5.870515683149860747e-02 -3.120177379904159332e-01 6.864664528999687987e-02 2.145578004470153483e-02 8.547374218768212517e-02 -1.047700433713624896e-01 -1.069198000526505460e-01 2.171641297505660373e-01 2.738193863831645675e-02 3.326160677266127852e-01 -2.629045705257609944e-02 -2.219017819240484690e-02 -8.191930122127943220e-03 9.217775926811559717e-02 -7.209196706990115069e-03 -3.535747809565723161e-03 2.431903226526527240e-02 -1.134929095517131156e-02 -6.590521661009952729e-03 3.963061119772162688e-02 1.138430382827436155e-03 -2.627236488122236882e-03 1.457984360799962232e-03 1.487191169545613693e-02 -6.260640702535720525e-02 7.971277747259473967e-02 3.380945396292198146e-02 -3.924979766875404813e-02 -9.810813328808914990e-02 1.401678560613289770e-02 1.917374697936249928e-02 -2.117314522028328552e-02 -4.921274832577722802e-01 -6.152406389525258423e-02 -4.580273346468698992e-01 9.766750408891454460e-02 1.341988425320274070e-01 -6.403811342185605077e-04 -1.519791183522243849e-01 -3.636980557816872905e-01 -2.356139377674466573e-01 0.000000000000000000e+00 0.000000000000000000e+00 0.000000000000000000e+00 1.208894753650156024e-14 -1.712266685048839285e-15 0.000000000000000000e+00 4.033405246716667301e-15 -1.664496537546837395e-15 0.000000000000000000e+00 1.894138544991510589e-15 4.904887464370533544e-16 -1.560523664446524435e-15 0.000000000000000000e+00 0.000000000000000000e+00 0.000000000000000000e+00 0.000000000000000000e+00 -7.064462963983312394e-16 5.670667403273929127e-16 0.000000000000000000e+00 1.677212442582592994e-16 1.121702726287005432e-16 1.894138544991510589e-15 4.904887464370533544e-16 -1.560523664446524435e-15 0.000000000000000000e+00 7.512857916573000229e-16 -6.938687747557351330e-16 0.000000000000000000e+00 1.093494262969773934e-15 -1.483016183330048007e-15 0.000000000000000000e+00 6.383010033831373322e-16 -6.524464458359893595e-16 1.894138544991510589e-15 4.904887464370533544e-16 -1.560523664446524435e-15 0.000000000000000000e+00 0.000000000000000000e+00 0.000000000000000000e+00 0.000000000000000000e+00 5.358415354085779489e-16 4.964725458180875061e-16 0.000000000000000000e+00 3.842370517657903587e-15 5.854353565015023177e-16 1.894138544991510589e-15 4.904887464370533544e-16 -1.560523664446524435e-15 0.000000000000000000e+00 0.000000000000000000e+00 0.000000000000000000e+00 0.000000000000000000e+00 -9.157333062578270665e-16 2.986458254988182406e-15 0.000000000000000000e+00 -1.765577430976430193e-15 -5.770604340944013615e-16 6.220851711240028836e-02 2.365801403330436425e-02 5.311610016503942600e-02 -1.489185371273140934e-01 -4.632296350802630330e-02 2.283656646849472477e-02 -1.863937012626906004e-02 2.705130373152188628e-01 1.943494454596673415e-01 -2.267013308003552885e-02 -6.714751429161472385e-02 -4.379704338327881641e-01 0.000000000000000000e+00 0.000000000000000000e+00 0.000000000000000000e+00 -1.334844522939214468e-15 1.405673341074506267e-15 0.000000000000000000e+00 -1.508187141515535788e-15 1.873319642197336852e-15 0.000000000000000000e+00 -1.580249502928142307e-15 -3.284890075248702899e-16 3.832680413896375719e-16 0.000000000000000000e+00 0.000000000000000000e+00 0.000000000000000000e+00 0.000000000000000000e+00 1.393610034954968637e-15 -1.301387865504367313e-15 0.000000000000000000e+00 6.806358634874437280e-16 -9.203532558343407697e-16 -1.580249502928142307e-15 -3.284890075248702899e-16 3.832680413896375719e-16 0.000000000000000000e+00 1.981126408945802193e-16 -2.164789500138338504e-15 0.000000000000000000e+00 4.584797529151865194e-16 -7.451802891711657957e-16 0.000000000000000000e+00 -1.594499423383345222e-15 1.445701637346855429e-16 -1.580249502928142307e-15 -3.284890075248702899e-16 3.832680413896375719e-16 0.000000000000000000e+00 0.000000000000000000e+00 0.000000000000000000e+00 0.000000000000000000e+00 6.088045055537071194e-16 -5.919833885858152558e-16 0.000000000000000000e+00 -2.013967046873903192e-15 -1.685714042398790915e-15 -1.580249502928142307e-15 -3.284890075248702899e-16 3.832680413896375719e-16 0.000000000000000000e+00 0.000000000000000000e+00 0.000000000000000000e+00 0.000000000000000000e+00 -2.348833644788714042e-16 2.094637019016794284e-16 0.000000000000000000e+00 1.675642083566768485e-15 -1.227782865902029048e-16
4.500005990397578444e+02 2.781378786182442039e-02 -2.903540737298511767e-02 -3.926085449969760055e-02 -2.014484786311816072e-02 -1.277319064883859212e-01 -1.910267554547614294e-02 5.136309792036939520e-02 2.209830460751574521e-01 6.453508950074086925e-02 7.330413797345341695e-03 6.996947042454603957e-03 5.312033440453023392e-01 5.865120051268799678e-02 -3.108641999305840065e-01 5.828471427519404946e-02 6.239051023006382535e-02 8.438240962441508064e-02 -1.238677781029067781e-01 -1.373505783777020650e-01 2.554942782300753668e-01 6.086015729375374855e-02 3.481681839833113967e-01 -2.802085172144505587e-02 -1.431028433444407090e-02 1.643135954310266655e-06 1.211316965055138917e-01 -5.671079789538423233e-03 -8.144721281693950233e-04 3.103054693018550414e-02 -8.320693319300763446e-03 -2.142383482867944722e-03 5.088225446160545701e-02 1.128826268898978696e-04 -2.422032906582093428e-03 4.136622331608042196e-04 9.097195876270234086e-03 -6.709333105992774937e-02 2.923085684625784456e-02 5.215914867738621723e-03 -9.672587254192129003e-03 -9.676295325707105766e-02 -1.234383376141302488e-02 1.350495955727151753e-02 -3.385049170966402537e-02 -3.834899912148725942e-01 -6.170759724310895949e-02 -3.812673708979402165e-01 1.139793031436954207e-01 1.521006656144655855e-01 1.561809277576016800e-02 -7.004156078353623860e-02 -9.840023174065160028e-02 -9.605690714400699770e-02 0.000000000000000000e+00 0.000000000000000000e+00 0.000000000000000000e+00 1.367815530529782797e-14 -2.422331686328542099e-15 0.000000000000000000e+00 4.954924587204369664e-15 -2.244636529498523448e-15 0.000000000000000000e+00 1.380781490074352362e-15 -3.355234386243645322e-16 -1.452212903759933390e-15 0.000000000000000000e+00 0.000000000000000000e+00 0.000000000000000000e+00 0.000000000000000000e+00 5.527422012047963794e-16 -2.595364323046080524e-16 0.000000000000000000e+00 -2.883082898597482296e-16 -4.009980527436962061e-16 1.380781490074352362e-15 -3.355234386243645322e-16 -1.452212903759933390e-15 0.000000000000000000e+00 7.681355282470215082e-16 -9.342135214195701932e-16 0.000000000000000000e+00 1.434976188814504362e-15 -1.645608235683726507e-15 0.000000000000000000e+00 -4.637967148080303661e-16 -1.587338982628801126e-15 1.380781490074352362e-15 -3.355234386243645322e-16 -1.452212903759933390e-15 0.000000000000000000e+00 0.000000000000000000e+00 0.000000000000000000e+00 0.000000000000000000e+00 7.624085412377121740e-16 -8.306693151092688430e-17 0.000000000000000000e+00 3.120236903962339622e-15 3.419487953136185406e-16 1.380781490074352362e-15 -3.355234386243645322e-16 -1.452212903759933390e-15 0.000000000000000000e+00 0.000000000000000000e+00 0.000000000000000000e+00 0.000000000000000000e+00 3.407653036776467338e-17 3.168805978027438166e-15 0.000000000000000000e+00 -3.156393447217618729e-15 -1.237616401702202720e-15 3.256738369009351541e-02 2.926550260696194478e-02 2.899227425945716946e-02 -1.275493836265379211e-01 -6.576077360384528780e-02 -5.945351921911865185e-03 -3.295629166503892538e-02 2.046981839705644957e-01 1.059224903731474515e-01 -3.353232582564742020e-02 -7.377064177850103932e-02 -3.150779464556547893e-01 0.000000000000000000e+00 0.000000000000000000e+00 0.000000000000000000e+00 -2.116105285878932300e-15 1.448544320952415316e-15 0.000000000000000000e+00 -1.791674087483732738e-15 2.542302038586414054e-15 0.000000000000000000e+00 -1.507212131254550447e-15 -1.240427636412783621e-16 6.758625330707191111e-16 0.000000000000000000e+00 0.000000000000000000e+00 0.000000000000000000e+00 0.000000000000000000e+00 1.266387775832383210e-15 -6.361914806222948178e-16 0.000000000000000000e+00 6.626199759752083022e-16 -1.481127119201946297e-15 -1.507212131254550447e-15 -1.240427636412783621e-16 6.758625330707191111e-16 0.000000000000000000e+00 3.625611929350455981e-16 -2.430434645971418982e-15 0.000000000000000000e+00 5.313389482372838619e-16 -4.721668541396190058e-16 0.000000000000000000e+00 -1.765989104959147547e-15 3.150473879313368551e-16 -1.507212131254550447e-15 -1.240427636412783621e-16 6.758625330707191111e-16 0.000000000000000000e+00 0.000000000000000000e+00 0.000000000000000000e+00 0.000000000000000000e+00 7.761693491402230307e-16 -5.003039614780547978e-16 0.000000000000000000e+00 -1.561763010287516342e-15 -1.856736990441993265e-15 -1.507212131254550447e-15 -1.240427636412783621e-16 6.758625330707191111e-16 0.000000000000000000e+00 0.000000000000000000e+00 0.000000000000000000e+00 0.000000000000000000e+00 -3.607712015661194651e-16 4.914598397518287294e-16 0.000000000000000000e+00 2.061084538751302141e-15 -3.339955753977156262e-16
